<mxfile host="app.diagrams.net" modified="2021-07-29T21:34:12.354Z" agent="5.0 (X11; Linux x86_64) AppleWebKit/537.36 (KHTML, like Gecko) Chrome/92.0.4515.107 Safari/537.36" etag="0FUKC5fGE2xk8um8LoYn" version="14.9.3" type="github">
  <diagram id="s-8e7hLK5MDUinv2UmrK" name="Page-1">
    <mxGraphModel dx="1662" dy="706" grid="1" gridSize="10" guides="1" tooltips="1" connect="1" arrows="1" fold="1" page="1" pageScale="1" pageWidth="827" pageHeight="1169" math="0" shadow="0">
      <root>
        <mxCell id="0" />
        <mxCell id="1" parent="0" />
        <mxCell id="A3amkw4epZTgjA4IQF_4-3" style="edgeStyle=orthogonalEdgeStyle;rounded=0;orthogonalLoop=1;jettySize=auto;html=1;exitX=0;exitY=0;exitDx=0;exitDy=0;" edge="1" parent="1" source="A3amkw4epZTgjA4IQF_4-1" target="A3amkw4epZTgjA4IQF_4-2">
          <mxGeometry relative="1" as="geometry">
            <Array as="points">
              <mxPoint x="55" y="200" />
            </Array>
          </mxGeometry>
        </mxCell>
        <mxCell id="A3amkw4epZTgjA4IQF_4-8" style="edgeStyle=orthogonalEdgeStyle;rounded=0;orthogonalLoop=1;jettySize=auto;html=1;exitX=0.25;exitY=0;exitDx=0;exitDy=0;" edge="1" parent="1" source="A3amkw4epZTgjA4IQF_4-1" target="A3amkw4epZTgjA4IQF_4-4">
          <mxGeometry relative="1" as="geometry" />
        </mxCell>
        <mxCell id="A3amkw4epZTgjA4IQF_4-9" style="edgeStyle=orthogonalEdgeStyle;rounded=0;orthogonalLoop=1;jettySize=auto;html=1;exitX=0.5;exitY=0;exitDx=0;exitDy=0;entryX=0.5;entryY=1;entryDx=0;entryDy=0;" edge="1" parent="1" source="A3amkw4epZTgjA4IQF_4-1" target="A3amkw4epZTgjA4IQF_4-6">
          <mxGeometry relative="1" as="geometry" />
        </mxCell>
        <mxCell id="A3amkw4epZTgjA4IQF_4-10" style="edgeStyle=orthogonalEdgeStyle;rounded=0;orthogonalLoop=1;jettySize=auto;html=1;exitX=0.75;exitY=0;exitDx=0;exitDy=0;entryX=0.5;entryY=1;entryDx=0;entryDy=0;" edge="1" parent="1" source="A3amkw4epZTgjA4IQF_4-1" target="A3amkw4epZTgjA4IQF_4-7">
          <mxGeometry relative="1" as="geometry" />
        </mxCell>
        <mxCell id="A3amkw4epZTgjA4IQF_4-11" style="edgeStyle=orthogonalEdgeStyle;rounded=0;orthogonalLoop=1;jettySize=auto;html=1;exitX=1;exitY=0;exitDx=0;exitDy=0;entryX=0.5;entryY=1;entryDx=0;entryDy=0;" edge="1" parent="1" source="A3amkw4epZTgjA4IQF_4-1" target="A3amkw4epZTgjA4IQF_4-5">
          <mxGeometry relative="1" as="geometry">
            <Array as="points">
              <mxPoint x="343" y="200" />
            </Array>
          </mxGeometry>
        </mxCell>
        <mxCell id="A3amkw4epZTgjA4IQF_4-1" value="animal" style="rounded=0;whiteSpace=wrap;html=1;" vertex="1" parent="1">
          <mxGeometry x="136.25" y="210" width="117.5" height="40" as="geometry" />
        </mxCell>
        <mxCell id="A3amkw4epZTgjA4IQF_4-2" value="nome" style="ellipse;whiteSpace=wrap;html=1;" vertex="1" parent="1">
          <mxGeometry x="20" y="40" width="70" height="70" as="geometry" />
        </mxCell>
        <mxCell id="A3amkw4epZTgjA4IQF_4-4" value="especie" style="ellipse;whiteSpace=wrap;html=1;" vertex="1" parent="1">
          <mxGeometry x="90" y="40" width="70" height="70" as="geometry" />
        </mxCell>
        <mxCell id="A3amkw4epZTgjA4IQF_4-5" value="idade" style="ellipse;whiteSpace=wrap;html=1;" vertex="1" parent="1">
          <mxGeometry x="306" y="40" width="74" height="70" as="geometry" />
        </mxCell>
        <mxCell id="A3amkw4epZTgjA4IQF_4-6" value="sexo" style="ellipse;whiteSpace=wrap;html=1;" vertex="1" parent="1">
          <mxGeometry x="160" y="40" width="70" height="70" as="geometry" />
        </mxCell>
        <mxCell id="A3amkw4epZTgjA4IQF_4-7" value="localização" style="ellipse;whiteSpace=wrap;html=1;" vertex="1" parent="1">
          <mxGeometry x="230" y="40" width="76" height="70" as="geometry" />
        </mxCell>
        <mxCell id="A3amkw4epZTgjA4IQF_4-25" style="edgeStyle=orthogonalEdgeStyle;rounded=0;orthogonalLoop=1;jettySize=auto;html=1;exitX=0;exitY=0;exitDx=0;exitDy=0;entryX=0.5;entryY=1;entryDx=0;entryDy=0;" edge="1" parent="1" source="A3amkw4epZTgjA4IQF_4-12" target="A3amkw4epZTgjA4IQF_4-20">
          <mxGeometry relative="1" as="geometry">
            <Array as="points">
              <mxPoint x="450" y="210" />
              <mxPoint x="450" y="160" />
              <mxPoint x="449" y="160" />
            </Array>
          </mxGeometry>
        </mxCell>
        <mxCell id="A3amkw4epZTgjA4IQF_4-26" style="edgeStyle=orthogonalEdgeStyle;rounded=0;orthogonalLoop=1;jettySize=auto;html=1;exitX=0.25;exitY=0;exitDx=0;exitDy=0;entryX=0.5;entryY=1;entryDx=0;entryDy=0;" edge="1" parent="1" source="A3amkw4epZTgjA4IQF_4-12" target="A3amkw4epZTgjA4IQF_4-21">
          <mxGeometry relative="1" as="geometry" />
        </mxCell>
        <mxCell id="A3amkw4epZTgjA4IQF_4-27" style="edgeStyle=orthogonalEdgeStyle;rounded=0;orthogonalLoop=1;jettySize=auto;html=1;exitX=0.5;exitY=0;exitDx=0;exitDy=0;entryX=0.5;entryY=1;entryDx=0;entryDy=0;" edge="1" parent="1" source="A3amkw4epZTgjA4IQF_4-12" target="A3amkw4epZTgjA4IQF_4-23">
          <mxGeometry relative="1" as="geometry" />
        </mxCell>
        <mxCell id="A3amkw4epZTgjA4IQF_4-28" style="edgeStyle=orthogonalEdgeStyle;rounded=0;orthogonalLoop=1;jettySize=auto;html=1;exitX=0.75;exitY=0;exitDx=0;exitDy=0;entryX=0.5;entryY=1;entryDx=0;entryDy=0;" edge="1" parent="1" source="A3amkw4epZTgjA4IQF_4-12" target="A3amkw4epZTgjA4IQF_4-24">
          <mxGeometry relative="1" as="geometry" />
        </mxCell>
        <mxCell id="A3amkw4epZTgjA4IQF_4-29" style="edgeStyle=orthogonalEdgeStyle;rounded=0;orthogonalLoop=1;jettySize=auto;html=1;exitX=1;exitY=0;exitDx=0;exitDy=0;entryX=0.5;entryY=1;entryDx=0;entryDy=0;" edge="1" parent="1" source="A3amkw4epZTgjA4IQF_4-12" target="A3amkw4epZTgjA4IQF_4-22">
          <mxGeometry relative="1" as="geometry">
            <Array as="points">
              <mxPoint x="737" y="210" />
            </Array>
          </mxGeometry>
        </mxCell>
        <mxCell id="A3amkw4epZTgjA4IQF_4-12" value="cuidadores" style="rounded=0;whiteSpace=wrap;html=1;" vertex="1" parent="1">
          <mxGeometry x="534" y="210" width="110" height="40" as="geometry" />
        </mxCell>
        <mxCell id="A3amkw4epZTgjA4IQF_4-13" value="" style="endArrow=classic;startArrow=classic;html=1;exitX=1;exitY=0.5;exitDx=0;exitDy=0;entryX=0;entryY=0.5;entryDx=0;entryDy=0;" edge="1" parent="1" source="A3amkw4epZTgjA4IQF_4-1" target="A3amkw4epZTgjA4IQF_4-12">
          <mxGeometry width="50" height="50" relative="1" as="geometry">
            <mxPoint x="390" y="390" as="sourcePoint" />
            <mxPoint x="440" y="340" as="targetPoint" />
          </mxGeometry>
        </mxCell>
        <mxCell id="A3amkw4epZTgjA4IQF_4-14" value="1-n&amp;nbsp; &amp;nbsp;&amp;nbsp;" style="edgeLabel;html=1;align=center;verticalAlign=middle;resizable=0;points=[];" vertex="1" connectable="0" parent="A3amkw4epZTgjA4IQF_4-13">
          <mxGeometry x="-0.856" y="-5" relative="1" as="geometry">
            <mxPoint y="5" as="offset" />
          </mxGeometry>
        </mxCell>
        <mxCell id="A3amkw4epZTgjA4IQF_4-16" value="1-n" style="edgeLabel;html=1;align=center;verticalAlign=middle;resizable=0;points=[];" vertex="1" connectable="0" parent="1">
          <mxGeometry x="300" y="260" as="geometry">
            <mxPoint x="214" y="-15" as="offset" />
          </mxGeometry>
        </mxCell>
        <mxCell id="A3amkw4epZTgjA4IQF_4-20" value="nome completo" style="ellipse;whiteSpace=wrap;html=1;" vertex="1" parent="1">
          <mxGeometry x="414" y="40" width="70" height="70" as="geometry" />
        </mxCell>
        <mxCell id="A3amkw4epZTgjA4IQF_4-21" value="função" style="ellipse;whiteSpace=wrap;html=1;" vertex="1" parent="1">
          <mxGeometry x="484" y="40" width="70" height="70" as="geometry" />
        </mxCell>
        <mxCell id="A3amkw4epZTgjA4IQF_4-22" value="idade" style="ellipse;whiteSpace=wrap;html=1;" vertex="1" parent="1">
          <mxGeometry x="700" y="40" width="74" height="70" as="geometry" />
        </mxCell>
        <mxCell id="A3amkw4epZTgjA4IQF_4-23" value="sexo" style="ellipse;whiteSpace=wrap;html=1;" vertex="1" parent="1">
          <mxGeometry x="554" y="40" width="70" height="70" as="geometry" />
        </mxCell>
        <mxCell id="A3amkw4epZTgjA4IQF_4-24" value="departamento" style="ellipse;whiteSpace=wrap;html=1;" vertex="1" parent="1">
          <mxGeometry x="624" y="40" width="76" height="70" as="geometry" />
        </mxCell>
      </root>
    </mxGraphModel>
  </diagram>
</mxfile>
